# xmcd CD database file
#
# Track frame offsets:
#	150
#	34297
#	68745
#	203930
#	226497
#
# Disc length: 3703 seconds
#
# Revision: 3
# Processed by: cddbd v1.5.2PL0 Copyright (c) Steve Scherf et al.
# Submitted via: CDex 1.51
#
DISCID=420e7505
DTITLE=Olivier Messiaen - Catalogue d'oiseaux  (Håkon Austbø, piano)  [suite]
DYEAR=1996
DGENRE=Musique Contemporaine
TTITLE0=Catalogue d'oiseaux [1956-1958] - 3ème Livre - V. La chouette hulotte
TTITLE1=Catalogue d'oiseaux [1956-1958] - 3ème Livre - VI. L'alouette-lulu
TTITLE2=Catalogue d'oiseaux [1956-1958] - 4ème Livre - VII. Le rousserolle effarvatte
TTITLE3=Catalogue d'oiseaux [1956-1958] - 5ème Livre - VIII. L'alouette calandrelle
TTITLE4=Catalogue d'oiseaux [1956-1958] - 5ème Livre - IX. La bouscarle
EXTD=Hakan Austbo: piano YEAR: 1996
EXTT0=
EXTT1=
EXTT2=
EXTT3=
EXTT4=
PLAYORDER=
